<svg xmlns="http://www.w3.org/2000/svg" viewBox="0 0 20 22">
  <style>
    :root { --icon-fg: #535353; }
    @media (prefers-color-scheme: dark) {
      :root { --icon-fg: #ededea; }
    }
  </style>
  <g fill="var(--icon-fg)">
    <rect x="11" y="0" width="8" height="1" />
    <rect x="10" y="1" width="10" height="1" />
    <rect x="10" y="2" width="2" height="1" />
    <rect x="13" y="2" width="7" height="1" />
    <rect x="10" y="3" width="10" height="1" />
    <rect x="10" y="4" width="10" height="1" />
    <rect x="10" y="5" width="10" height="1" />
    <rect x="10" y="6" width="5" height="1" />
    <rect x="10" y="7" width="8" height="1" />
    <rect x="0" y="8" width="1" height="1" />
    <rect x="8" y="8" width="6" height="1" />
    <rect x="0" y="9" width="1" height="1" />
    <rect x="7" y="9" width="7" height="1" />
    <rect x="0" y="10" width="2" height="1" />
    <rect x="6" y="10" width="10" height="1" />
    <rect x="0" y="11" width="3" height="1" />
    <rect x="5" y="11" width="9" height="1" />
    <rect x="15" y="11" width="1" height="1" />
    <rect x="0" y="12" width="14" height="1" />
    <rect x="0" y="13" width="14" height="1" />
    <rect x="1" y="14" width="12" height="1" />
    <rect x="2" y="15" width="11" height="1" />
    <rect x="3" y="16" width="9" height="1" />
    <rect x="4" y="17" width="7" height="1" />
    <rect x="5" y="18" width="3" height="1" />
    <rect x="9" y="18" width="2" height="1" />
    <rect x="5" y="19" width="2" height="1" />
    <rect x="10" y="19" width="1" height="1" />
    <rect x="5" y="20" width="1" height="1" />
    <rect x="10" y="20" width="1" height="1" />
    <rect x="5" y="21" width="2" height="1" />
    <rect x="10" y="21" width="2" height="1" />
  </g>
</svg>
